<svg width="25" height="24" viewBox="0 0 25 24" fill="none" xmlns="http://www.w3.org/2000/svg">
<path fill-rule="evenodd" clip-rule="evenodd" d="M12.3828 1C10.1737 1 8.38281 2.79086 8.38281 5V12C8.38281 14.2091 10.1737 16 12.3828 16C14.5919 16 16.3828 14.2091 16.3828 12V5C16.3828 2.79086 14.5919 1 12.3828 1ZM10.3828 5C10.3828 3.89543 11.2782 3 12.3828 3C13.4874 3 14.3828 3.89543 14.3828 5V12C14.3828 13.1046 13.4874 14 12.3828 14C11.2782 14 10.3828 13.1046 10.3828 12V5Z" fill="white"/>
<path d="M5.38281 9C5.93509 9 6.38281 9.44771 6.38281 10V12C6.38281 13.5913 7.01495 15.1174 8.14017 16.2426C9.26539 17.3679 10.7915 18 12.3828 18C13.9741 18 15.5002 17.3679 16.6254 16.2426C17.7507 15.1174 18.3828 13.5913 18.3828 12V10C18.3828 9.44771 18.8305 9 19.3828 9C19.9351 9 20.3828 9.44771 20.3828 10V12C20.3828 14.1217 19.5399 16.1566 18.0397 17.6569C16.7766 18.9199 15.1346 19.717 13.3809 19.9375C13.3821 19.9582 13.3828 19.979 13.3828 20V22C13.3828 22.5523 12.9351 23 12.3828 23C11.8305 23 11.3828 22.5523 11.3828 22V20C11.3828 19.979 11.3834 19.9582 11.3847 19.9375C9.63101 19.717 7.98904 18.9199 6.72596 17.6569C5.22566 16.1566 4.38281 14.1217 4.38281 12V10C4.38281 9.44771 4.83053 9 5.38281 9Z" fill="white"/>
</svg>
