<svg width="25" height="25" viewBox="0 0 25 25" fill="none" xmlns="http://www.w3.org/2000/svg">
<path d="M21.7429 5.51783L21.7429 5.51783L21.7426 5.52203C21.719 5.85031 21.6007 6.59538 21.4412 7.59977L21.431 7.6644C21.2678 8.69244 21.0665 9.9663 20.8902 11.2907L19.6846 19.1196L19.6833 19.1277L19.6827 19.1352L19.6827 19.1353L19.6826 19.1356L19.6826 19.1357L19.6826 19.1359L19.6826 19.1361L19.6819 19.1425C19.6812 19.1487 19.68 19.1588 19.6781 19.1722C19.6743 19.199 19.6678 19.239 19.6573 19.288C19.6363 19.3869 19.6 19.5191 19.5398 19.655C19.4179 19.93 19.2157 20.1847 18.8728 20.2604C18.5071 20.341 18.0082 20.2001 17.5306 19.9784C17.065 19.7623 16.6799 19.4984 16.5696 19.4108L16.5696 19.4107L16.5634 19.4061C16.5148 19.37 16.3198 19.2433 16.0422 19.0629C15.9839 19.0251 15.922 18.9849 15.8571 18.9426C15.4749 18.6942 14.9719 18.3659 14.4361 18.0082C13.3593 17.2894 12.1673 16.4628 11.5535 15.9266L11.5535 15.9266L11.551 15.9245C11.3941 15.791 11.2578 15.6155 11.2276 15.4269C11.201 15.2611 11.2464 15.0173 11.6032 14.7074L11.6033 14.7076L11.611 14.7003L16.8874 9.7122L16.8874 9.71225L16.8917 9.70796C17.0593 9.54158 17.225 9.32247 17.3391 9.11172C17.396 9.00644 17.4447 8.89497 17.472 8.78706C17.4977 8.68591 17.5142 8.55134 17.4616 8.42462C17.3989 8.27336 17.2648 8.19316 17.1165 8.17471C16.9843 8.15827 16.8347 8.18793 16.6772 8.24176C16.3575 8.351 15.9018 8.59701 15.2692 9.02402L8.24075 13.7583C8.23733 13.7602 8.23125 13.7636 8.22254 13.768C8.20403 13.7775 8.17365 13.792 8.13157 13.809C8.04747 13.8427 7.91653 13.886 7.74015 13.9171C7.38886 13.9789 6.85054 13.9936 6.13463 13.7805C6.13435 13.7804 6.13407 13.7804 6.13379 13.7803L2.90605 12.7944C2.90389 12.7928 2.90161 12.7911 2.89922 12.7893C2.87744 12.7728 2.84788 12.7485 2.81768 12.7179C2.7527 12.6522 2.70785 12.5812 2.69762 12.5159C2.69026 12.4689 2.69315 12.3824 2.82384 12.2527C2.9633 12.1142 3.23528 11.9425 3.73572 11.7607L3.74608 11.757L3.75608 11.7523C7.54918 9.98265 12.0006 8.18506 16.3166 6.44215C17.7091 5.87981 19.0876 5.32317 20.4252 4.77498L20.4259 4.77474L20.4377 4.77044C20.4487 4.76654 20.4656 4.76071 20.4875 4.75368C20.5315 4.73957 20.5949 4.72086 20.6707 4.70319C20.8254 4.66716 21.018 4.63871 21.1978 4.65423C21.3776 4.66974 21.5163 4.72603 21.6067 4.83135C21.6961 4.93559 21.7771 5.13356 21.7429 5.51783ZM2.9291 12.8105C2.92917 12.8106 2.92916 12.8106 2.92907 12.8105L2.9291 12.8105Z" fill="#050505" stroke="white" stroke-width="0.5"/>
</svg>
