<svg width="34" height="34" viewBox="0 0 34 34" fill="none" xmlns="http://www.w3.org/2000/svg">
<path d="M30.4055 8.19924L30.4054 8.19924L30.4051 8.20344C30.3726 8.65505 30.211 9.67311 29.9947 11.0356L29.9793 11.1326C29.7568 12.5347 29.4823 14.2711 29.2421 16.0763L27.5979 26.753L27.5967 26.761L27.596 26.7687L27.596 26.7688L27.596 26.7689L27.596 26.769L27.596 26.7692L27.5958 26.7706L27.5948 26.7805C27.5937 26.7898 27.5919 26.8044 27.5892 26.8236C27.5838 26.862 27.5745 26.9185 27.5598 26.9877C27.5302 27.1268 27.4791 27.3134 27.3938 27.5059C27.2216 27.8944 26.928 28.2715 26.4207 28.3834C25.8906 28.5004 25.1861 28.2959 24.5326 27.9927C23.8911 27.695 23.3598 27.3313 23.2038 27.2074L23.2039 27.2073L23.1976 27.2026C23.134 27.1553 22.8717 26.9849 22.4927 26.7387C22.4131 26.687 22.3284 26.6319 22.2392 26.574C21.718 26.2351 21.0317 25.7872 20.3006 25.2992C18.8332 24.3196 17.2026 23.1892 16.3604 22.4535L16.3604 22.4535L16.3579 22.4513C16.1371 22.2634 15.9322 22.0063 15.886 21.7179C15.8435 21.4524 15.9254 21.0907 16.4284 20.6538L16.4285 20.654L16.4362 20.6467L23.6312 13.8447L23.6313 13.8448L23.6356 13.8405C23.8581 13.6197 24.0785 13.328 24.2297 13.0487C24.3052 12.9091 24.368 12.7643 24.4029 12.6269C24.436 12.4962 24.4533 12.3358 24.3928 12.1898C24.322 12.0193 24.1711 11.9263 23.9949 11.9044C23.8349 11.8845 23.6462 11.92 23.4365 11.9917C23.0123 12.1366 22.399 12.4665 21.538 13.0477L11.951 19.5054L11.9485 19.5068C11.9429 19.51 11.9332 19.5153 11.9195 19.5224C11.8919 19.5365 11.8479 19.5575 11.7879 19.5816C11.6678 19.6299 11.4832 19.6907 11.236 19.7342C10.7431 19.821 9.99463 19.8402 9.00462 19.5455C9.00435 19.5455 9.00407 19.5454 9.0038 19.5453L4.58721 18.1963C4.58061 18.1916 4.57282 18.1859 4.56409 18.1793C4.53178 18.1549 4.48802 18.1188 4.44312 18.0734C4.34873 17.9779 4.27247 17.8644 4.25425 17.7481C4.23889 17.6501 4.25719 17.5041 4.45213 17.3106C4.65583 17.1084 5.04087 16.8686 5.72861 16.6188L5.73898 16.615L5.74897 16.6104C10.9238 14.1961 16.9972 11.7435 22.8832 9.36659C24.7821 8.59977 26.6615 7.84082 28.4849 7.09358L28.4873 7.09267L28.5047 7.08638C28.5204 7.08077 28.5444 7.07251 28.5752 7.06261C28.637 7.04276 28.726 7.01654 28.8322 6.99179C29.0476 6.94158 29.3208 6.90066 29.5795 6.92299C29.838 6.9453 30.0538 7.02766 30.1981 7.1959C30.3415 7.36306 30.4533 7.66079 30.4055 8.19924Z" fill="white" stroke="white" stroke-width="0.5"/>
</svg>
